:SAMPLES-PER-SECOND 30
:FRAME-RANGE 1-1086
:FULLY-SPECIFIED
:DEGREES
68
root  -53.5608 38.8348 -65.1256 179.954 22.9186 -177.365
RightUpLeg  -14.7846 -1.65043 5.12276
RightLeg  10.1962 -18.7485 1.04643
RightFoot  1.58421 0.31053 -2.64385
RightToes  -5.8209e-011 0 -3.6325e-017
Spine  5.51172 -1.45638 6.80746
Spine1  -0.601345 -1.2971 1.59452
HEad  13.58 -4.34137 -4.59454
LeftShoulder1  1.64926 -0.689653 -33.2801
LeftArm  17.9505 -1.67119 -38.408
LeftForeArm  5.04591 -6.12347 -17.3372
LeftHand  0.33251 -1.83357 -5.20097
RightShoulder  7.26436 8.97014 51.0055
RightArm  10.5342 -0.941913 13.7433
RightForeArm  23.0169 -4.78417 17.4326
RightHand  0.34021 3.98513 3.9405
LeftUpLeg  6.63188 16.0568 5.18689
LeftLeg  32.9456 1.10092 1.12114
LeftFoot  -8.01973 0.64437 -20.3862
LeftToes  5.72949e-011 5.22586e-011 2.45399e-011
69
root  -53.1298 38.704 -65.9763 -179.485 22.6171 -176.23
RightUpLeg  -14.8052 -2.00351 6.30992
RightLeg  13.299 -18.6628 0.183224
RightFoot  -1.03478 0.217224 -2.48471
RightToes  -5.8209e-011 0 -3.6325e-017
Spine  5.49795 -1.5722 8.59722
Spine1  -0.356766 -1.18236 2.12116
HEad  13.2693 -5.07377 -3.98454
LeftShoulder1  1.64332 -0.7278 -32.7885
LeftArm  20.5989 -0.597307 -37.8303
LeftForeArm  3.78307 -6.10417 -17.5855
LeftHand  0.367981 -1.82178 -5.78243
RightShoulder  7.14772 8.80358 50.8688
RightArm  10.6367 -1.02966 13.7884
RightForeArm  22.3491 -4.86416 17.4308
RightHand  0.362139 3.95836 4.22546
LeftUpLeg  1.00925 14.7219 6.83533
LeftLeg  43.414 0.622591 1.0236
LeftFoot  0.874194 2.02204 -18.8009
LeftToes  5.72949e-011 5.22586e-011 2.45399e-011
70
root  -52.7636 38.4363 -66.7336 -179.135 22.455 -174.708
RightUpLeg  -15.0352 -2.3851 7.88661
RightLeg  17.2569 -18.3596 -0.935433
RightFoot  -4.00408 0.109183 -2.12514
RightToes  -5.8209e-011 0 -3.6325e-017
Spine  6.30879 -1.73804 11.032
Spine1  -0.498096 -0.900716 2.51821
HEad  13.1554 -5.69663 -3.5046
LeftShoulder1  1.63606 -0.709614 -32.7835
LeftArm  22.7596 0.279146 -36.6886
LeftForeArm  2.70014 -6.53753 -17.5934
LeftHand  0.380421 -1.72863 -6.0704
RightShoulder  7.25146 8.9735 50.903
RightArm  11.5317 -0.98067 13.7291
RightForeArm  22.0641 -3.78786 17.4965
RightHand  0.35826 4.0423 4.13432
LeftUpLeg  -4.22858 13.3989 8.78159
LeftLeg  52.4404 -0.114032 0.294018
LeftFoot  7.47523 2.37328 -14.5349
LeftToes  5.72949e-011 5.22586e-011 2.45399e-011
71
root  -52.3557 38.4112 -67.5752 -179.413 22.9712 -174.437
RightUpLeg  -13.8064 -2.57778 8.42721
RightLeg  18.9305 -17.5818 -1.57776
RightFoot  -6.11159 0.0384128 -1.74714
RightToes  -5.8209e-011 0 -3.6325e-017
Spine  6.83336 -1.56964 11.8156
Spine1  -0.753668 -0.462567 2.40512
HEad  13.2633 -5.81982 -3.17482
LeftShoulder1  1.59396 -0.599651 -32.7967
LeftArm  22.4663 1.27987 -35.4886
LeftForeArm  2.4789 -6.59807 -17.5736
LeftHand  0.373141 -1.69369 -5.98437
RightShoulder  7.57847 9.44703 51.2448
RightArm  13.2167 -0.299089 13.556
RightForeArm  21.4358 -2.94234 17.6536
RightHand  0.316051 3.95727 3.6547
LeftUpLeg  -8.44364 12.7126 9.47751
LeftLeg  58.7079 0.189018 0.865465
LeftFoot  6.03622 2.05818 -13.6567
LeftToes  5.72949e-011 5.22586e-011 2.45399e-011
72
root  -51.9593 38.451 -68.4381 -179.863 23.7005 -174.752
RightUpLeg  -12.2992 -2.86413 8.41541
RightLeg  19.966 -16.5055 -2.08808
RightFoot  -7.93671 -0.0149237 -1.30624
RightToes  -5.8209e-011 0 -3.6325e-017
Spine  6.9522 -1.34934 11.9751
Spine1  -0.868274 -0.0904236 2.12804
HEad  13.8008 -5.57016 -3.05563
LeftShoulder1  1.53628 -0.465224 -32.6576
LeftArm  19.7678 2.57332 -34.528
LeftForeArm  3.21449 -6.24009 -17.5355
LeftHand  0.34246 -1.51228 -5.64332
RightShoulder  8.03 10.1445 51.5143
RightArm  13.1818 0.8653 13.5316
RightForeArm  22.2152 -3.13642 17.6474
RightHand  0.32444 4.10382 3.69051
LeftUpLeg  -12.1699 12.1821 9.38492
LeftLeg  61.8434 0.0270606 0.636153
LeftFoot  4.6785 1.65128 -11.9041
LeftToes  5.72949e-011 5.22586e-011 2.45399e-011
73
root  -51.5624 38.5857 -69.306 179.658 24.586 -175.557
RightUpLeg  -10.3986 -3.16547 7.85683
RightLeg  19.792 -15.2456 -2.14751
RightFoot  -9.19481 -0.0431366 -1.02061
RightToes  -5.8209e-011 0 -3.6325e-017
Spine  6.83258 -0.960697 11.5127
Spine1  -1.16216 0.277278 1.74772
HEad  14.4797 -5.24677 -3.16398
LeftShoulder1  1.51231 -0.412011 -32.5709
LeftArm  18.073 4.01185 -33.757
LeftForeArm  3.20367 -6.4901 -17.3115
LeftHand  0.326422 -1.36907 -5.50177
RightShoulder  8.37524 10.7601 51.4096
RightArm  12.0191 1.93687 13.7998
RightForeArm  22.8906 -3.21401 17.5056
RightHand  0.331238 4.16305 3.74603
LeftUpLeg  -15.4129 11.1061 8.46683
LeftLeg  61.7868 -0.213543 0.146087
LeftFoot  2.87995 1.38077 -11.1825
LeftToes  5.72949e-011 5.22586e-011 2.45399e-011
74
root  -51.186 38.7204 -70.1693 179.169 25.6157 -176.449
RightUpLeg  -8.3458 -3.70193 7.04342
RightLeg  19.1487 -13.7097 -1.84687
RightFoot  -10.3053 -0.0620165 -0.856625
RightToes  -5.8209e-011 0 -3.6325e-017
Spine  6.72785 -0.511922 11.2306
Spine1  -1.51799 0.732787 0.952216
HEad  14.9596 -5.0108 -3.41487
LeftShoulder1  1.49199 -0.365797 -32.5066
LeftArm  17.8713 5.29572 -33.1227
LeftForeArm  2.87763 -7.28192 -16.9382
LeftHand  0.334841 -1.46084 -5.5616
RightShoulder  8.61484 11.1972 51.3077
RightArm  10.8408 2.76636 14.0597
RightForeArm  22.8244 -2.41501 17.3137
RightHand  0.354131 4.22495 3.99351
LeftUpLeg  -18.0156 10.1203 7.43137
LeftLeg  59.1854 -0.458683 -0.300596
LeftFoot  0.870766 1.14986 -10.7753
LeftToes  5.72949e-011 5.22586e-011 2.45399e-011
75
root  -50.8138 38.8796 -70.9972 178.797 26.8116 -177.393
RightUpLeg  -6.22018 -4.0951 6.11591
RightLeg  17.8958 -12.1033 -1.37772
RightFoot  -11.0534 -0.0728727 -0.773018
RightToes  -5.8209e-011 0 -3.6325e-017
Spine  6.69086 0.0111119 10.7989
Spine1  -2.03501 1.20663 -0.011714
HEad  15.044 -4.78836 -3.59988
LeftShoulder1  1.46417 -0.292229 -32.5199
LeftArm  18.499 6.53445 -32.5559
LeftForeArm  2.34666 -8.49153 -16.3773
LeftHand  0.362642 -1.71554 -5.79203
RightShoulder  8.92461 11.8187 50.9987
RightArm  10.1606 3.06042 14.5505
RightForeArm  22.2942 -0.738071 16.9998
RightHand  0.341275 4.22612 3.83807
LeftUpLeg  -19.9107 9.369 6.38721
LeftLeg  54.0501 -0.514396 -0.298731
LeftFoot  -0.646812 0.959516 -10.1913
LeftToes  5.72949e-011 5.22586e-011 2.45399e-011
76
root  -50.4514 39.0572 -71.799 178.597 28.1501 -178.175
RightUpLeg  -3.98792 -4.32651 5.24003
RightLeg  16.038 -10.608 -0.773193
RightFoot  -11.3787 -0.077237 -0.683623
RightToes  -5.8209e-011 0 -3.6325e-017
Spine  6.4348 0.533126 10.2913
Spine1  -2.28419 1.62284 -0.946723
HEad  14.8959 -4.39456 -3.79548
LeftShoulder1  1.43003 -0.192434 -32.6358
LeftArm  19.5178 7.7237 -32.1299
LeftForeArm  1.15725 -9.73418 -15.7863
LeftHand  0.377054 -1.78941 -5.95855
RightShoulder  9.19387 12.2963 50.9473
RightArm  12.9145 3.86902 14.715
RightForeArm  19.7905 1.77352 16.8656
RightHand  0.356818 4.35894 3.96149
LeftUpLeg  -20.8944 9.27195 5.62215
LeftLeg  46.5075 -0.517522 -0.184213
LeftFoot  -1.49109 0.842431 -9.65694
LeftToes  5.72949e-011 5.22586e-011 2.45399e-011
77
root  -50.1075 39.1883 -72.5768 178.628 29.5271 -178.645
RightUpLeg  -1.95624 -4.08226 4.77776
RightLeg  14.1727 -9.35564 -0.577551
RightFoot  -11.6286 -0.0799464 -0.493503
RightToes  -5.8209e-011 0 -3.6325e-017
Spine  6.05461 0.972878 9.91146
Spine1  -2.32839 1.95736 -1.77622
HEad  14.6725 -3.95157 -3.81182
LeftShoulder1  1.41062 -0.134739 -32.7147
LeftArm  18.5017 8.79306 -31.9208
LeftForeArm  1.57246 -9.96536 -15.5577
LeftHand  0.381847 -1.8644 -5.96648
RightShoulder  9.48696 12.8814 50.6938
RightArm  15.2008 4.68842 15.2381
RightForeArm  18.3064 3.74441 16.5474
RightHand  0.344849 4.34684 3.82484
LeftUpLeg  -21.0035 10.0455 5.14817
LeftLeg  36.8989 -1.02613 -0.475403
LeftFoot  -0.423033 0.962453 -10.0267
LeftToes  5.72949e-011 5.22586e-011 2.45399e-011
78
root  -49.7658 39.3429 -73.3143 178.57 30.8288 -179.07
RightUpLeg  0.374097 -3.84702 4.24452
RightLeg  11.7714 -8.1818 -0.227836
RightFoot  -11.5811 -0.0791809 -0.376261
RightToes  -5.8209e-011 0 -3.6325e-017
Spine  5.88222 1.24563 9.03158
Spine1  -2.34975 2.12181 -2.36307
HEad  14.5479 -3.14873 -3.74382
LeftShoulder1  1.38736 -0.0712177 -32.752
LeftArm  16.7226 9.97166 -31.7978
LeftForeArm  2.25046 -9.83853 -15.4826
LeftHand  0.397691 -1.97034 -6.1206
RightShoulder  9.85219 13.5911 50.4573
RightArm  17.7621 5.36756 15.7469
RightForeArm  16.7851 5.49445 16.1714
RightHand  0.329995 4.41676 3.61741
LeftUpLeg  -19.8379 10.7488 4.62929
LeftLeg  25.4588 -2.61284 -1.03261
LeftFoot  1.40705 1.2929 -11.6202
LeftToes  5.72949e-011 5.22586e-011 2.45399e-011
79
root  -49.4328 39.4148 -74.0666 178.476 32.0349 -179.15
RightUpLeg  2.57462 -3.62526 3.99107
RightLeg  10.1126 -7.14843 -0.105997
RightFoot  -11.911 -0.0810085 -0.0756164
RightToes  -5.8209e-011 0 -3.6325e-017
Spine  5.68172 1.34552 8.28878
Spine1  -2.02022 2.16734 -2.68642
HEad  14.3866 -2.28806 -3.55054
LeftShoulder1  1.37639 -0.0432623 -32.748
LeftArm  14.9341 10.9428 -31.7423
LeftForeArm  3.05517 -9.38248 -15.5939
LeftHand  0.404165 -1.95617 -6.23611
RightShoulder  10.3105 14.4175 50.3637
RightArm  18.3625 5.91224 16.219
RightForeArm  16.812 6.2913 15.8537
RightHand  0.336738 4.51905 3.65213
LeftUpLeg  -18.184 12.0193 4.23102
LeftLeg  14.8216 -5.09983 -1.22428
LeftFoot  2.93522 1.5971 -12.853
LeftToes  5.72949e-011 5.22586e-011 2.45399e-011
80
root  -49.0966 39.4319 -74.8544 178.329 33.039 -179.08
RightUpLeg  4.7288 -3.53825 3.7575
RightLeg  8.96101 -6.23694 -0.0546833
RightFoot  -12.5145 -0.0822528 0.240937
RightToes  -5.8209e-011 0 -3.6325e-017
Spine  5.29813 1.3256 7.4139
Spine1  -1.43175 2.09365 -2.73651
HEad  14.5744 -1.42276 -3.08185
LeftShoulder1  1.37525 -0.0704186 -32.7606
LeftArm  13.761 11.5785 -31.5863
LeftForeArm  3.81088 -8.60362 -15.9183
LeftHand  0.409394 -1.91851 -6.35495
RightShoulder  10.6706 14.9226 50.6856
RightArm  20.0476 6.66231 16.2727
RightForeArm  15.366 6.97552 15.7634
RightHand  0.330094 4.40142 3.62529
LeftUpLeg  -16.0414 9.09893 5.41544
LeftLeg  5.95167 -2.2095 -1.94033
LeftFoot  4.16148 1.72543 -12.8198
LeftToes  5.72949e-011 5.22586e-011 2.45399e-011
81
root  -48.7647 39.3655 -75.7102 178.247 33.7007 -178.84
RightUpLeg  6.57536 -3.64928 3.50605
RightLeg  8.74868 -5.4329 -0.0221831
RightFoot  -13.6216 -0.080209 0.60293
RightToes  -5.8209e-011 0 -3.6325e-017
Spine  4.82486 1.18506 6.72628
Spine1  -0.943007 1.90567 -2.71133
HEad  15.1926 -0.691934 -2.54582
LeftShoulder1  1.37816 -0.0566504 -32.7534
LeftArm  12.2081 11.7144 -31.304
LeftForeArm  5.36776 -7.13375 -16.4911
LeftHand  0.429624 -1.95686 -6.63785
RightShoulder  10.878 15.138 51.0663
RightArm  19.2904 7.11249 16.3392
RightForeArm  16.3069 6.52732 15.8663
RightHand  0.320038 4.49035 3.46884
LeftUpLeg  -14.5557 6.96042 6.00047
LeftLeg  0.661132 1.11865 -2.53579
LeftFoot  4.66092 1.85062 -13.32
LeftToes  5.72949e-011 5.22586e-011 2.45399e-011
82
root  -48.4359 39.2759 -76.6103 178.033 33.9686 -178.816
RightUpLeg  8.38436 -3.71838 3.11882
RightLeg  8.75924 -5.10969 -0.243107
RightFoot  -14.9173 -0.0629391 1.21878
RightToes  -5.8209e-011 0 -3.6325e-017
Spine  4.45072 0.999152 5.58319
Spine1  -0.592498 1.6356 -2.40369
HEad  15.8926 -0.301941 -1.98541
LeftShoulder1  1.37981 -0.0438887 -32.8374
LeftArm  11.0307 11.6346 -30.8787
LeftForeArm  6.20254 -5.87238 -16.939
LeftHand  0.449851 -1.89242 -7.02523
RightShoulder  10.7788 14.8157 51.4869
RightArm  18.8699 7.24259 16.319
RightForeArm  16.4612 6.22575 15.9607
RightHand  0.312046 4.36077 3.42867
LeftUpLeg  -14.0389 6.35613 5.2138
LeftLeg  -0.139818 1.53905 -2.52444
LeftFoot  7.84092 1.70375 -10.3452
LeftToes  5.72949e-011 5.22586e-011 2.45399e-011
